<svg xmlns="http://www.w3.org/2000/svg" viewBox="0 0 298 307" xmlns:v="https://vecta.io/nano"><path d="M18.823 88.66C.45 123.513-3.248 163.435 8.4 201.07s37.268 68.48 72.122 86.85c28.943 15.256 61.17 20.446 93.198 15.005 6.45-1.096 12.914-2.64 19.21-4.6 37.635-11.655 68.48-37.268 86.85-72.12 11.177-21.206 17.07-45.01 17.042-68.835-.006-4.142-3.367-7.496-7.51-7.49l-20 .023a7.51 7.51 0 0 0-5.301 2.203 7.5 7.5 0 0 0-2.191 5.306c.02 18.15-4.476 36.295-13.004 52.475-14.012 26.584-37.537 46.12-66.242 55.008a114.85 114.85 0 0 1-14.677 3.507c-24.41 4.147-48.982.187-71.06-11.45-26.583-14.01-46.12-37.536-55.01-66.242s-6.07-59.153 7.943-85.735c16.448-31.2 45.906-52.5 80.825-58.43 24.535-4.168 49.14-.238 71.156 11.365 7.296 3.845 14.03 8.382 20.18 13.566l-37.503-.242a7.5 7.5 0 0 0-7.548 7.451l-.13 20a7.5 7.5 0 0 0 7.451 7.548l90 .58c.448.003.887-.033 1.314-.106 3.52-.598 6.2-3.652 6.235-7.346l.58-90c.013-1.99-.764-3.9-2.162-5.317s-3.3-2.218-5.29-2.23l-20-.128c-4.14-.032-7.52 3.31-7.55 7.45L247.1 47.02c-8.815-7.796-18.57-14.56-29.016-20.067-28.872-15.217-61.14-20.37-93.314-14.905C79.005 19.822 40.388 47.746 18.823 88.66z" fill="#231f20"/></svg>